HIERARCHY
ROOT Hips
{
	OFFSET 161.749496 92.559273 7.494435
	CHANNELS 6 Xposition Yposition Zposition Zrotation Yrotation Xrotation 
	JOINT LeftUpLeg
	{
		OFFSET 0.103458 1.857830 10.548506
		CHANNELS 3 Zrotation Yrotation Xrotation
		JOINT LeftLeg
		{
			OFFSET 43.500000 -0.000031 0.000008
			CHANNELS 3 Zrotation Yrotation Xrotation
			JOINT LeftFoot
			{
				OFFSET 42.372192 0.000011 -0.000005
				CHANNELS 3 Zrotation Yrotation Xrotation
				JOINT LeftToe
				{
					OFFSET 17.300001 -0.000001 0.000000
					CHANNELS 3 Zrotation Yrotation Xrotation
					End Site
					{
						OFFSET 0.000000 0.000000 0.000000
					}
				}
			}
		}
	}
	JOINT RightUpLeg
	{
		OFFSET 0.103461 1.857827 -10.548508
		CHANNELS 3 Zrotation Yrotation Xrotation
		JOINT RightLeg
		{
			OFFSET 43.500050 -0.000011 0.000008
			CHANNELS 3 Zrotation Yrotation Xrotation
			JOINT RightFoot
			{
				OFFSET 42.372261 -0.000011 0.000014
				CHANNELS 3 Zrotation Yrotation Xrotation
				JOINT RightToe
				{
					OFFSET 17.299994 -0.000005 0.000010
					CHANNELS 3 Zrotation Yrotation Xrotation
					End Site
					{
						OFFSET 0.000000 0.000000 0.000000
					}
				}
			}
		}
	}
	JOINT Spine
	{
		OFFSET 6.901967 -2.603731 -0.000004
		CHANNELS 3 Zrotation Yrotation Xrotation
		JOINT Spine1
		{
			OFFSET 12.588100 -0.000003 0.000008
			CHANNELS 3 Zrotation Yrotation Xrotation
			JOINT Spine2
			{
				OFFSET 12.343203 0.000004 0.000003
				CHANNELS 3 Zrotation Yrotation Xrotation
				JOINT Neck
				{
					OFFSET 25.832893 -0.000006 0.000000
					CHANNELS 3 Zrotation Yrotation Xrotation
					JOINT Head
					{
						OFFSET 11.766603 0.000010 -0.000010
						CHANNELS 3 Zrotation Yrotation Xrotation
						End Site
						{
							OFFSET 0.000000 0.000000 0.000000
						}
					}
				}
				JOINT LeftShoulder
				{
					OFFSET 19.745899 -1.480368 6.000103
					CHANNELS 3 Zrotation Yrotation Xrotation
					JOINT LeftArm
					{
						OFFSET 11.284128 -0.000007 -0.000012
						CHANNELS 3 Zrotation Yrotation Xrotation
						JOINT LeftForeArm
						{
							OFFSET 33.000050 0.000004 0.000022
							CHANNELS 3 Zrotation Yrotation Xrotation
							JOINT LeftHand
							{
								OFFSET 25.200001 0.000015 0.000014
								CHANNELS 3 Zrotation Yrotation Xrotation
								End Site
								{
									OFFSET 0.000000 0.000000 0.000000
								}
							}
						}
					}
				}
				JOINT RightShoulder
				{
					OFFSET 19.746090 -1.480375 -6.000075
					CHANNELS 3 Zrotation Yrotation Xrotation
					JOINT RightArm
					{
						OFFSET 11.284135 -0.000015 -0.000023
						CHANNELS 3 Zrotation Yrotation Xrotation
						JOINT RightForeArm
						{
							OFFSET 33.000099 0.000019 0.000022
							CHANNELS 3 Zrotation Yrotation Xrotation
							JOINT RightHand
							{
								OFFSET 25.199783 0.000140 0.000422
								CHANNELS 3 Zrotation Yrotation Xrotation
								End Site
								{
									OFFSET 0.000000 0.000000 0.000000
								}
							}
						}
					}
				}
			}
		}
	}
}
MOTION
Frames: 11
Frame Time: 0.033333
161.749496 92.559273 7.494435 90.623291 3.431044 89.806305 -175.727052 -2.644804 179.776029 -8.342496 -3.013230 -2.515822 80.918576 1.681310 -0.583246 21.454553 0.003086 0.000001 -177.970332 4.150205 -179.381982 -14.161764 1.312906 -0.126303 82.884619 0.594100 2.539171 21.454558 -0.003111 -0.000017 6.046839 0.046039 0.365231 2.081637 0.102231 0.720739 1.763576 0.106699 0.720125 20.679209 0.166171 0.509479 -20.684796 -0.542186 0.760356 -73.422922 -81.068314 -109.192445 -8.511480 -0.354185 -6.519450 -8.410167 -12.990280 0.861530 12.656058 -2.050470 9.299229 -85.822515 88.732825 95.998609 -1.791500 0.167855 10.820389 -14.514731 17.495328 -1.200530 15.750599 7.526790 -4.943927 
161.748901 92.559273 7.489921 90.623278 3.428684 89.806394 -175.732298 -2.645801 179.776029 -8.346108 -3.013225 -2.515828 80.918576 1.681308 -0.621014 21.454553 0.003089 -0.000000 -177.977477 4.145801 -179.381982 -14.161771 1.307323 -0.126308 82.884626 0.594090 2.523652 21.454558 -0.003101 -0.000015 6.046840 0.046038 0.365248 2.081151 0.098026 0.720717 1.763066 0.102507 0.720132 20.695354 0.205779 0.510207 -20.722377 -0.571304 0.772029 -73.307266 -81.078526 -109.307219 -8.499153 -0.325286 -6.537591 -8.451513 -13.017860 0.863401 12.649979 -2.015442 9.283685 -86.484156 88.732668 95.337235 -1.793338 0.151566 10.855017 -14.545880 17.517072 -1.202124 15.734300 7.524904 -4.997637 
161.735504 92.555733 7.460837 90.615799 3.444680 89.797112 -175.740166 -2.663101 179.790332 -8.359594 -3.013230 -2.524035 80.918590 1.682790 -0.638524 21.454553 0.003079 -0.000003 -177.980154 4.127102 -179.381996 -14.163576 1.298743 -0.126313 82.884496 0.594100 2.512993 21.454558 -0.003111 -0.000018 6.053624 0.046036 0.365245 2.094643 0.085729 0.717256 1.776590 0.090196 0.716719 20.753479 0.301191 0.526817 -20.906272 -0.660726 0.824505 -73.276844 -81.058773 -109.339622 -8.474074 -0.159055 -6.528020 -8.737449 -13.230733 0.877649 12.583590 -1.795144 9.038595 -87.161472 88.747578 94.658096 -1.810243 0.013301 10.881500 -14.763621 17.664864 -1.213083 15.682794 7.539442 -4.998761 
161.719803 92.556107 7.432304 90.601380 3.442930 89.771594 -175.776435 -2.686209 179.792285 -8.388217 -3.013231 -2.529746 80.918583 1.693417 -0.610200 21.454550 0.003084 0.000000 -178.006710 4.098898 -179.394181 -14.171057 1.286963 -0.127990 82.868984 0.594091 2.496460 21.454558 -0.003106 -0.000016 6.057895 0.043743 0.365249 2.103177 0.081212 0.707521 1.785128 0.085601 0.707037 20.801748 0.372629 0.574126 -21.021365 -0.749566 0.910084 -73.484796 -80.977247 -109.139388 -8.531074 -0.000896 -6.668673 -8.968977 -13.410112 0.889672 12.564923 -1.575605 8.681467 -87.252388 88.786141 94.563559 -1.873711 -0.033164 10.720163 -14.815049 17.675172 -1.214142 15.685091 7.599360 -4.976393 
161.703400 92.552719 7.405054 90.586736 3.454311 89.724363 -175.784153 -2.711813 179.767082 -8.408342 -3.011678 -2.540887 80.912456 1.685793 -0.674167 21.454555 0.003108 0.000003 -178.023662 4.072803 -179.416652 -14.177594 1.278758 -0.146909 82.870269 0.603285 2.477767 21.454558 -0.003109 -0.000019 6.064942 0.035896 0.365234 2.117256 0.065392 0.714946 1.799173 0.069842 0.714545 20.868205 0.517514 0.617960 -21.067886 -0.835128 0.988006 -73.473042 -80.962166 -109.152673 -8.578249 0.034655 -6.782700 -9.016548 -13.446909 0.892147 12.521408 -1.446598 8.422087 -88.358305 88.830647 93.452711 -1.931802 -0.053840 10.613446 -14.802931 17.632842 -1.214663 15.703438 7.480019 -4.995750 
161.687897 92.551773 7.380882 90.577802 3.465081 89.683908 -175.806446 -2.714200 179.765320 -8.449550 -2.991279 -2.557142 80.936724 1.702785 -0.648647 21.454553 0.003096 -0.000001 -178.035260 4.053613 -179.407951 -14.175573 1.267323 -0.170364 82.862093 0.615742 2.458187 21.454560 -0.003106 -0.000016 6.074199 0.027151 0.365246 2.135696 0.047802 0.719676 1.817628 0.052282 0.719382 20.872390 0.605971 0.627655 -20.974398 -0.825968 0.991344 -73.316746 -81.008461 -109.304706 -8.574981 0.000835 -6.798703 -8.917511 -13.417552 0.892601 12.523990 -1.287349 8.253134 -88.609806 88.877604 93.196722 -1.969620 -0.095613 10.628184 -14.789994 17.625597 -1.214838 15.692746 7.187102 -4.975483 
161.669601 92.551987 7.359391 90.562721 3.474498 89.627539 -175.807744 -2.740213 179.766809 -8.459632 -2.998847 -2.585155 80.943636 1.710241 -0.699717 21.454550 0.003085 -0.000002 -178.055314 4.027690 -179.421351 -14.186131 1.259996 -0.195803 82.855905 0.632274 2.451178 21.454558 -0.003109 -0.000018 6.085761 0.019973 0.365249 2.158781 0.033333 0.726350 1.840720 0.037844 0.726144 20.823816 0.655939 0.606330 -20.830086 -0.800456 0.955683 -73.133089 -81.033118 -109.486184 -8.532186 -0.036487 -6.857398 -8.857498 -13.391108 0.892129 12.484210 -1.126162 8.085123 -89.560678 88.929726 92.240858 -1.992840 -0.093069 10.700318 -14.778432 17.608620 -1.214769 15.732714 7.050728 -4.941863 
161.652405 92.552681 7.338792 90.551445 3.485450 89.582774 -175.814930 -2.752493 179.772150 -8.478186 -2.998912 -2.619839 80.937018 1.732358 -0.707437 21.454551 0.003089 -0.000001 -178.067157 4.004813 -179.444984 -14.185303 1.257217 -0.196818 82.838788 0.629443 2.433459 21.454557 -0.003104 -0.000018 6.102550 0.014146 0.365232 2.192352 0.021540 0.730674 1.874287 0.026086 0.730530 20.641571 0.621459 0.556331 -20.593206 -0.687803 0.856614 -72.975981 -81.058506 -109.641209 -8.445079 -0.071866 -6.897555 -8.859768 -13.417610 0.891003 12.482228 -1.058392 7.986140 -89.037362 88.971875 92.760581 -1.964275 -0.114531 10.681767 -14.812804 17.638070 -1.214587 15.723859 7.066889 -5.033877 
161.638504 92.553917 7.316542 90.549573 3.494091 89.551491 -175.815913 -2.753809 179.795591 -8.480196 -2.995773 -2.657354 80.924573 1.752189 -0.733188 21.454555 0.003095 0.000001 -178.080858 3.997687 -179.469859 -14.194515 1.256771 -0.202947 82.834533 0.628028 2.406960 21.454558 -0.003117 -0.000019 6.122859 0.008981 0.367742 2.232907 0.010993 0.735557 1.914828 0.015591 0.735471 20.334812 0.463631 0.465438 -20.365037 -0.478784 0.679294 -72.890413 -81.080773 -109.724680 -8.335385 -0.105517 -6.843590 -8.909772 -13.459387 0.889563 12.444848 -1.167184 7.785800 -88.233135 89.005937 93.562616 -1.867953 -0.108345 10.546424 -14.877421 17.694887 -1.214447 15.693647 7.097778 -4.988908 
161.621704 92.554832 7.297874 90.536910 3.495566 89.506002 -175.833275 -2.770006 179.782573 -8.501833 -2.991221 -2.672394 80.919546 1.767852 -0.710067 21.454551 0.003086 -0.000001 -178.110925 3.974894 -179.506674 -14.211319 1.259080 -0.213469 82.819548 0.638015 2.416928 21.454557 -0.003105 -0.000016 6.142696 0.006494 0.375469 2.272567 0.004390 0.750974 1.954503 0.009057 0.750941 20.043926 0.327475 0.379050 -20.365365 -0.335401 0.533415 -72.852150 -81.088463 -109.762240 -8.261066 -0.164043 -6.785152 -8.917850 -13.473602 0.888107 12.363243 -1.406388 7.737621 -87.699492 89.028435 94.094059 -1.754766 -0.101072 10.499886 -14.957831 17.745579 -1.214445 15.730363 7.181781 -4.926147 
161.608307 92.558510 7.280392 90.533304 3.496874 89.502799 -175.852864 -2.783993 179.802175 -8.518931 -2.987158 -2.680930 80.921882 1.771382 -0.720181 21.454551 0.003081 -0.000002 -178.115255 3.963308 -179.523299 -14.198658 1.267054 -0.197163 82.804023 0.622916 2.399255 21.454557 -0.003107 -0.000019 6.161763 0.004332 0.378829 2.310689 0.001337 0.752456 1.992617 0.006008 0.752446 19.804163 0.231564 0.311759 -20.555113 -0.324994 0.460191 -72.794872 -81.086633 -109.819736 -8.224101 -0.182564 -6.841653 -8.956855 -13.485201 0.886958 12.378220 -1.576000 7.708190 -86.191851 89.053120 95.601126 -1.656619 -0.082420 10.569526 -14.958072 17.764122 -1.214696 15.689363 7.274513 -4.889056 
